<?xml version="1.0" encoding="UTF-8" standalone="no"?>
<svg
   xmlns:dc="http://purl.org/dc/elements/1.1/"
   xmlns:cc="http://creativecommons.org/ns#"
   xmlns:rdf="http://www.w3.org/1999/02/22-rdf-syntax-ns#"
   xmlns:svg="http://www.w3.org/2000/svg"
   xmlns="http://www.w3.org/2000/svg"
   xmlns:sodipodi="http://sodipodi.sourceforge.net/DTD/sodipodi-0.dtd"
   xmlns:inkscape="http://www.inkscape.org/namespaces/inkscape"
   width="793.70081"
   height="1122.5197"
   viewBox="0 0 210 297"
   version="1.1"
   id="svg8"
   inkscape:version="1.0.2-2 (e86c870879, 2021-01-15)"
   sodipodi:docname="logo.svg">
  <defs
     id="defs2" />
  <sodipodi:namedview
     id="base"
     pagecolor="#ffffff"
     bordercolor="#666666"
     borderopacity="1.0"
     inkscape:pageopacity="0.0"
     inkscape:pageshadow="2"
     inkscape:zoom="0.35"
     inkscape:cx="197.14286"
     inkscape:cy="560"
     inkscape:document-units="px"
     inkscape:current-layer="layer1"
     inkscape:document-rotation="0"
     showgrid="false"
     showborder="false"
     units="px"
     inkscape:window-width="1424"
     inkscape:window-height="1009"
     inkscape:window-x="125"
     inkscape:window-y="0"
     inkscape:window-maximized="0" />
  <metadata
     id="metadata5">
    <rdf:RDF>
      <cc:Work
         rdf:about="">
        <dc:format>image/svg+xml</dc:format>
        <dc:type
           rdf:resource="http://purl.org/dc/dcmitype/StillImage" />
        <dc:title />
      </cc:Work>
    </rdf:RDF>
  </metadata>
  <g
     inkscape:label="Calque 1"
     inkscape:groupmode="layer"
     id="layer1">
    <path
       id="path1005"
       style="fill:#d40055;stroke-width:0.811784"
       d="m 38.101646,-51.61905 -2.774844,12.473392 c 0.550756,-0.07548 1.106514,-0.113363 1.662985,-0.113376 1.377395,0 2.743915,0.232008 4.036166,0.685279 l -2.86131,-13.045295 z m 16.350324,10.960486 -9.506612,4.174617 a 11.660251,11.085135 0 0 1 2.56495,2.899675 l 6.965474,-7.042806 z m -17.462183,2.161128 a 11.660251,11.085135 0 0 0 -7.237307,2.393719 13.217244,12.565333 0 0 1 5.571305,9.431608 h 1.351148 c 4.1842,0 7.552769,3.202413 7.552769,7.180231 0,0.272613 -0.0164,0.541414 -0.04725,0.805955 a 11.660251,11.085135 0 0 0 4.469602,-8.726366 11.660251,11.085135 0 0 0 -11.660267,-11.085147 z M 21.06785,-37.299715 A 13.217244,12.565333 0 0 0 7.8800113,-25.572075 H 6.5288636 c -4.1842003,0 -7.5526636,3.202414 -7.5526636,7.180231 0,3.977833 3.3684633,7.180167 7.5526636,7.180167 H 35.606784 c 4.184226,0 7.552769,-3.202334 7.552769,-7.180167 0,-3.977817 -3.368543,-7.180231 -7.552769,-7.180231 H 34.255636 A 13.217244,12.565333 0 0 0 21.06785,-37.299715 Z m 27.909785,6.000191 c 0.489691,1.243143 0.740516,2.559783 0.740568,3.887235 -5.2e-5,0.48178 -0.0331,0.963054 -0.09898,1.440751 l 15.502811,-2.59021 v -0.05987 z M 5.1365731,-10.583733 v 5.4790866 h 2.0559978 v -5.4790866 z m 7.0492149,0 v 5.4790866 h 2.055971 v -5.4790866 z m 7.049187,0 v 5.4790866 h 2.055998 v -5.4790866 z m 7.049188,0 v 5.4790866 h 2.055998 v -5.4790866 z m 7.049188,0 v 5.4790866 h 2.055998 V -10.583733 Z M 8.6611936,-7.3826004 v 5.4790869 h 2.0559714 v -5.4790869 z m 7.0491884,0 v 5.4790869 h 2.055997 v -5.4790869 z m 7.049187,0 v 5.4790869 h 2.055998 v -5.4790869 z m 7.049215,0 v 5.4790869 h 2.055971 V -7.3826004 Z M 5.1365731,-4.1813908 v 5.4790076 h 2.0559978 v -5.4790076 z m 7.0492149,0 v 5.4790076 h 2.055971 v -5.4790076 z m 7.049187,0 v 5.4790076 h 2.055998 v -5.4790076 z m 7.049188,0 v 5.4790076 h 2.055998 v -5.4790076 z m 7.049188,0 v 5.4790076 h 2.055998 v -5.4790076 z"
       inkscape:export-xdpi="96"
       inkscape:export-ydpi="96" />
  </g>
</svg>
